2. Clumsy Office Temp

The new blonde temp looks to be useless. She drops things, knocks things over and is pretty dumb. But still, she has a nice set of legs and a very short shirt.
Perhaps she can be used for something? Any Ideas?

What is Strapon Cum?
Hot, juicy young girls in sexy, kinky outfits play and fuck each other with
big strapon that squirts loads of hot gooey cum!! Dungeons & slave training!
Girl-on-girl bondage! Hours of young girls begging for mercy...and more!
 
http://bayimg.com/FaAFhaaEJ

Format                                   : Windows Media
File size                                : 20.6 MiB
Duration                                 : 14s 548ms
Overall bit rate mode                    : Constant
Overall bit rate                         : 11.9 Mbps
Maximum Overall bit rate                 : 24.4 Mbps
Encoded date                             : UTC 2012-07-17 08:11:21.790

Video
ID                                       : 2
Format                                   : VC-1
Format profile                           : MP
Codec ID                                 : WMV3
Codec ID/Info                            : Windows Media Video 9
Codec ID/Hint                            : WMV3
Description of the codec                 : Windows Media Video 9 - Professional
Duration                                 : 14s 548ms
Bit rate mode                            : Constant
Bit rate                                 : 24.0 Mbps
Width                                    : 1 920 pixels
Height                                   : 1 080 pixels
Display aspect ratio                     : 16:9
Frame rate                               : 29.970 fps
Bit depth                                : 8 bits
Scan type                                : Progressive
Compression mode                         : Lossy
Bits/(Pixel*Frame)                       : 0.386
Stream size                              : 41.6 MiB
Language                                 : English (US)

Audio
ID                                       : 1
Format                                   : WMA
Format version                           : Version 2
Codec ID                                 : 161
Codec ID/Info                            : Windows Media Audio
Description of the codec                 : Windows Media Audio 9.2 - 192 kbps, 48 kHz, stereo (A/V) 1-pass CBR
Duration                                 : 14s 548ms
Bit rate mode                            : Constant
Bit rate                                 : 192 Kbps
Channel(s)                               : 2 channels
Sampling rate                            : 48.0 KHz
Bit depth                                : 16 bits
Stream size                              : 341 KiB (2%)
Language                                 : English (US)

